<?xml version="1.0" standalone="no"?>
<!DOCTYPE svg PUBLIC "-//W3C//DTD SVG 20010904//EN"
 "http://www.w3.org/TR/2001/REC-SVG-20010904/DTD/svg10.dtd">
<svg version="1.0" xmlns="http://www.w3.org/2000/svg"
 width="70.000000pt" height="70.000000pt" viewBox="0 0 70.000000 70.000000"
 preserveAspectRatio="xMidYMid meet">
<metadata>
Created by potrace 1.14, written by Peter Selinger 2001-2017
</metadata>
<g transform="translate(0.000000,70.000000) scale(0.100000,-0.100000)"
fill="#000000" stroke="none">
<path d="M428 572 c-20 -4 -24 -22 -9 -37 6 -6 13 -33 17 -62 l6 -52 -35 -14
c-48 -21 -54 -30 -56 -97 -1 -28 -5 -40 -16 -40 -8 0 -15 8 -16 18 0 12 -3 10
-10 -7 -13 -32 0 -44 46 -44 48 0 44 -17 -5 -19 -85 -4 -85 -4 -82 14 1 9 -2
19 -8 23 -25 15 -9 44 34 60 43 16 44 18 34 46 -5 16 -13 29 -17 29 -4 0 -6
13 -3 29 3 19 -1 30 -12 34 -10 4 -13 1 -9 -9 8 -23 -17 -46 -44 -39 -47 11
-82 -36 -48 -65 20 -17 20 -61 0 -54 -16 7 -21 -11 -5 -21 12 -7 60 -103 60
-119 0 -22 48 -63 81 -70 40 -8 119 25 119 50 0 16 33 87 66 144 15 25 14 44
-4 165 -14 93 -47 146 -84 137z m-141 -212 c-2 -25 -25 -34 -45 -18 -13 11
-15 10 -9 -6 6 -16 5 -17 -8 -6 -22 18 -18 33 8 28 13 -2 29 1 35 9 17 18 21
16 19 -7z m151 -57 c-5 -24 -25 -27 -31 -3 -4 15 0 20 15 20 13 0 18 -6 16
-17z m-78 -163 c0 -5 -9 -10 -20 -10 -11 0 -20 5 -20 10 0 6 9 10 20 10 11 0
20 -4 20 -10z"/>
</g>
</svg>
